<?xml version="1.0" encoding="UTF-8" standalone="no"?> <svg id="Layer_1" data-name="Layer 1" xmlns="http://www.w3.org/2000/svg" viewBox="0 0 64 64"><defs><style>.cls-1{fill:#79a837;}.cls-2{fill:#6c9631;}.cls-3{fill:#8db357;}.cls-4{fill:#548513;}</style></defs><path class="cls-1" d="M40.087,13.746l-4.628.538c.851,4.418-3.907,10.235-3.908,10.235l8.536-6.386Z"/><path class="cls-2" d="M37.989,18.15a39.154,39.154,0,0,1-4.531,3.558,24.09,24.09,0,0,1-1.907,2.811l8.536-6.386V13.746l-1.214.141C38.932,15.41,38.81,17.277,37.989,18.15Z"/><path class="cls-1" d="M51.3,18.915,43,28.064,9.963,56.181A2.733,2.733,0,0,0,9,58.264H9A2.736,2.736,0,0,0,11.736,61H12.8a14.5,14.5,0,0,0,10.488-4.485L46,32.716,54.1,23.2Z"/><path class="cls-2" d="M9,58.264H9a2.735,2.735,0,0,1,.963-2.083L43,28.064l8.3-9.149.442.675,5.415-6.251-3.507-3.017L49.72,13.641,50,14l-4.917,4.917L35,28.776,7.789,54.261A2.736,2.736,0,0,1,5.919,55H5.736a2.733,2.733,0,0,1-2.659-2.115c.011.047.016.279.035.369.733,3.517,3.776,6.034,7.081,7.4,0,0,.28.079.53.152A2.732,2.732,0,0,1,9,58.264Z"/><path class="cls-2" d="M46,30.716l-22.715,23.8A14.5,14.5,0,0,1,12.8,59H11.736A2.731,2.731,0,0,1,9.2,57.276a2.721,2.721,0,0,0-.2.988H9A2.736,2.736,0,0,0,11.736,61H12.8a14.5,14.5,0,0,0,10.488-4.485L46,32.716,54.1,23.2l-.74-1.131Z"/><path class="cls-1" d="M29.1,21.087l-4.628.538c.851,4.418-3.907,10.235-3.908,10.235L29.1,25.474Z"/><path class="cls-1" d="M50,14l-4.917,4.917L35,28.776,7.789,54.261A2.736,2.736,0,0,1,5.919,55H5.736A2.736,2.736,0,0,1,3,52.264H3A14.507,14.507,0,0,1,8.816,40.648L32,23.3,47.61,10.967Z"/><path class="cls-2" d="M27,25.491a39.264,39.264,0,0,1-4.531,3.558,23.8,23.8,0,0,1-1.907,2.811L29.1,25.474V21.087l-1.214.141C27.943,22.751,27.821,24.618,27,25.491Z"/><path class="cls-3" d="M6,52.264H6a14.507,14.507,0,0,1,5.816-11.616L35,23.3,48.762,12.427l-1.152-1.46L32,23.3,8.816,40.648A14.507,14.507,0,0,0,3,52.264H3A2.736,2.736,0,0,0,5.736,55h.183a2.726,2.726,0,0,0,1.413-.4A2.723,2.723,0,0,1,6,52.264Z"/><path class="cls-4" d="M34.037,21.03c-.306,2.709,1.3,3.97,3.636,5.383,0,0,4.708-.693,5.628-3.26l.651-1.818-3.6-.129a5.384,5.384,0,0,0,.9-5.378L40.549,14,39.1,15.353a5.4,5.4,0,0,0-1.557,5.231l-3.291-1.473Z"/><path class="cls-4" d="M60.448,5.136V3.179l-1.835.745a5.4,5.4,0,0,0-3.327,4.327L52.741,5.7l-.889,1.713c-1.256,2.42-.2,4.174,1.466,6.328,0,0,4.645,1.039,6.423-1.028L61,11.246,57.682,9.835A5.383,5.383,0,0,0,60.448,5.136Z"/><path class="cls-4" d="M55.968,27.534l1.73-.963-1.526-1.225a5.379,5.379,0,0,0-5.395-.789l.979-3.47-1.93.063C47.1,21.241,45,25.511,45,25.511c.632,2.652,1.34,4.571,4.013,5.108L50.906,31l-.395-3.584A5.4,5.4,0,0,0,55.968,27.534Z"/><path class="cls-4" d="M30.557,14.049c1.653,2.059,3.618,1.813,6.18,1.175,0,0,2.736-3.709,1.6-6.092l-.805-1.688L34.984,9.831A5.208,5.208,0,0,0,31.9,5.544L30.17,4.777l-.058,1.917a5.227,5.227,0,0,0,2.532,4.639l-3.257,1.258Z"/><path class="cls-4" d="M41.079,9.057l.571,1.452c.807,2.05,2.434,2.341,4.634,2.467,0,0,3.1-2.278,2.784-4.459l-.223-1.544S46.8,8.694,46.223,8.244a4.349,4.349,0,0,0-1.393-4.18l-1.192-1.04-.521,1.513a4.367,4.367,0,0,0,.869,4.325C43.711,9.536,41.079,9.057,41.079,9.057Z"/><path class="cls-4" d="M48.8,39.261l1.251-.614L49,37.709a4.866,4.866,0,0,0-3.809-.766l.831-2.429-1.374-.03c-1.94-.042-2.714,1.145-3.565,2.889,0,0,.779,3.33,2.658,3.816l1.331.344s-.7-2.25-.141-2.563A3.832,3.832,0,0,0,48.8,39.261Z"/></svg>